HIERARCHY
ROOT Hips
{
  OFFSET -62.0062 97.9406 49.1825
  CHANNELS 6 Xposition Yposition Zposition Zrotation Xrotation Yrotation
  JOINT ToSpine
  {
    OFFSET -2.69724 7.43032 -0.144315
    CHANNELS 3 Zrotation Xrotation Yrotation
    JOINT Spine
    {
      OFFSET -0.0310711 10.7595 1.96963
      CHANNELS 3 Zrotation Xrotation Yrotation
      JOINT Spine1
      {
        OFFSET 13.1342 3.43533 0.764692
        CHANNELS 3 Zrotation Xrotation Yrotation
        JOINT Neck
        {
          OFFSET 29.8703 7.82586 -0.130764
          CHANNELS 3 Zrotation Xrotation Yrotation
          JOINT Head
          {
            OFFSET 9.52751 0.295786 -0.907742
            CHANNELS 3 Zrotation Xrotation Yrotation
            End Site
            {
              OFFSET 16.4037 0.713936 2.7358
            }
          }
        }
        JOINT LeftShoulder
        {
          OFFSET 27.5574 4.95586 2.47156
          CHANNELS 3 Zrotation Xrotation Yrotation
          JOINT LeftArm
          {
            OFFSET 1.20734 -0.998971 20.1238
            CHANNELS 3 Zrotation Xrotation Yrotation
            JOINT LeftForeArm
            {
              OFFSET 26.8049 -0.0536703 -0.155908
              CHANNELS 3 Zrotation Xrotation Yrotation
              JOINT LeftHand
              {
                OFFSET 26.6817 0 0.320147
                CHANNELS 3 Zrotation Xrotation Yrotation
                End Site
                {
                  OFFSET 18.6119 0 0.382219
                }
              }
            }
          }
        }
        JOINT RightShoulder
        {
          OFFSET 27.5927 4.71444 -2.65209
          CHANNELS 3 Zrotation Xrotation Yrotation
          JOINT RightArm
          {
            OFFSET 2.83739 -1.17114 -18.7564
            CHANNELS 3 Zrotation Xrotation Yrotation
            JOINT RightForeArm
            {
              OFFSET 28.839 -0.0548439 1.22491
              CHANNELS 3 Zrotation Xrotation Yrotation
              JOINT RightHand
              {
                OFFSET 26.5114 0 -0.101894
                CHANNELS 3 Zrotation Xrotation Yrotation
                End Site
                {
                  OFFSET 18.2168 0 0
                }
              }
            }
          }
        }
      }
    }
  }
  JOINT LeftUpLeg
  {
    OFFSET -4.76168 -1.9167 -10.2353
    CHANNELS 3 Zrotation Xrotation Yrotation
    JOINT LeftLeg
    {
      OFFSET 2.55951 -42.0585 -8.02213
      CHANNELS 3 Zrotation Xrotation Yrotation
      JOINT LeftFoot
      {
        OFFSET 3.16357 -42.5282 -3.95426
        CHANNELS 3 Zrotation Xrotation Yrotation
        JOINT LeftToeBase
        {
          OFFSET 0.346054 -6.02161 12.8035
          CHANNELS 3 Zrotation Xrotation Yrotation
          End Site
          {
            OFFSET 0.134235 -1.35082 5.13018
          }
        }
      }
    }
  }
  JOINT RightUpLeg
  {
    OFFSET -4.94151 -1.41743 10.6446
    CHANNELS 3 Zrotation Xrotation Yrotation
    JOINT RightLeg
    {
      OFFSET -2.56294 -42.0364 -7.94377
      CHANNELS 3 Zrotation Xrotation Yrotation
      JOINT RightFoot
      {
        OFFSET -3.0952 -42.555 -4.02241
        CHANNELS 3 Zrotation Xrotation Yrotation
        JOINT RightToeBase
        {
          OFFSET -0.0828122 -6.13587 12.8035
          CHANNELS 3 Zrotation Xrotation Yrotation
          End Site
          {
            OFFSET -0.131328 -1.35082 5.13018
          }
        }
      }
    }
  }
}
MOTION
Frames:	18
Frame Time:	0.00833333
-62.1547 97.8799 48.5759 -3.91776 -69.0928 -93.7383 -70.1915 0 88.8779 68.3903 70.2104 20.5891 6.71007 20.9399 0.389665 -126.236 20.6821 177.548 -162.785 58.7425 172.794 -0.0911009 -14.8438 -35.1514 -68.473 43.878 -90.6904 8.93887 19.4921 -27.7166 0.420957 0.000575495 0.35866 -1.91135 5.98714 46.3728 -67.8263 -30.3502 96.7817 0.645863 -15.8931 22.1602 0.58676 0.000331457 0.0646658 -52.4228 2.53067 99.4701 -1.78437 20.2785 -8.5217 4.11201 -5.63183 -0.839102 -0.445754 0.669847 0.635751 -54.4992 0.223639 81.7412 1.77587 13.9449 -0.513756 -8.52596 -2.01625 1.25942 0.0559447 -3.64196 2.80094 
-62.1536 97.8801 48.5753 -3.93391 -69.0874 -93.7511 -70.1915 0 88.8779 68.416 70.2081 20.5567 6.71829 20.9323 0.391984 -126.144 20.6844 177.618 -162.937 58.745 172.954 -0.0849531 -14.8246 -35.1178 -68.4929 43.876 -90.7093 8.95591 19.5261 -27.7197 0.420957 0.000575495 0.35866 -1.91175 5.98669 46.3813 -67.7527 -30.3679 96.847 0.639545 -15.7968 22.1755 0.58676 0.000331457 0.0646658 -52.412 2.53896 99.4727 -1.78919 20.2805 -8.51878 4.11284 -5.62739 -0.840248 -0.445482 0.669563 0.635056 -54.4897 0.228948 81.745 1.77738 13.9415 -0.513431 -8.52647 -2.00887 1.25945 0.0557098 -3.64003 2.80059 
-62.1535 97.8803 48.566 -3.94365 -69.0848 -93.7613 -70.1915 0 88.8779 68.4845 70.2123 20.4693 6.70724 20.9209 0.415095 -126.092 20.6812 177.736 -163.198 58.7442 173.2 -0.0793651 -14.8014 -35.1199 -68.5413 43.8697 -90.7186 8.9702 19.5698 -27.7161 0.420957 0.000575495 0.35866 -1.91441 6.00319 46.3366 -67.6042 -30.4027 96.9539 0.611346 -15.6122 22.195 0.58676 0.000331457 0.0646658 -52.4052 2.54869 99.4813 -1.80437 20.276 -8.51808 4.11875 -5.61577 -0.843564 -0.445209 0.66928 0.634361 -54.4744 0.229202 81.7478 1.77751 13.9498 -0.512527 -8.52618 -2.00467 1.2594 0.0554749 -3.63811 2.80025 
-62.1534 97.8806 48.5514 -3.9592 -69.084 -93.7803 -70.1915 0 88.8779 68.5542 70.219 20.3814 6.69468 20.9123 0.436171 -126.05 20.6764 177.85 -163.459 58.7424 173.44 -0.0737917 -14.7745 -35.1434 -68.5709 43.8613 -90.7402 8.98141 19.5911 -27.7181 0.420957 0.000575495 0.35866 -1.91856 6.03103 46.257 -67.4654 -30.441 97.057 0.583692 -15.4412 22.2123 0.58676 0.000331457 0.0646658 -52.4041 2.55598 99.4911 -1.82091 20.266 -8.51431 4.12507 -5.60244 -0.847113 -0.444937 0.668996 0.633666 -54.4577 0.226857 81.7502 1.77599 13.965 -0.507802 -8.52469 -2.00391 1.25923 0.05524 -3.63618 2.79991 
-62.1536 97.8808 48.5378 -3.99276 -69.0837 -93.8196 -70.1915 0 88.8779 68.5834 70.224 20.3477 6.69832 20.9134 0.432394 -125.989 20.6741 177.911 -163.614 58.7427 173.583 -0.0688281 -14.7497 -35.1698 -68.5348 43.8525 -90.7958 8.98923 19.5581 -27.7382 0.420957 0.000575495 0.35866 -1.92247 6.0588 46.1754 -67.421 -30.4698 97.1104 0.579201 -15.386 22.2207 0.58676 0.000331457 0.0646658 -52.4105 2.55696 99.4971 -1.82981 20.2514 -8.50214 4.12712 -5.59287 -0.84896 -0.444664 0.668713 0.632971 -54.4439 0.224362 81.7529 1.77254 13.9824 -0.496011 -8.52162 -2.00684 1.2589 0.0550051 -3.63425 2.79956 
-62.1538 97.881 48.5316 -4.06669 -69.0856 -93.9051 -70.1915 0 88.8779 68.5514 70.2288 20.3972 6.72854 20.932 0.386952 -125.894 20.675 177.889 -163.613 58.7468 173.59 -0.0651132 -14.7327 -35.1807 -68.3873 43.8436 -90.9103 8.99141 19.4309 -27.7901 0.420957 0.000575495 0.35866 -1.92452 6.07501 46.1247 -67.5436 -30.4918 97.0775 0.616038 -15.5359 22.2133 0.58676 0.000331457 0.0646658 -52.4332 2.54647 99.4981 -1.82707 20.226 -8.47216 4.1222 -5.58856 -0.848075 -0.444392 0.668429 0.632275 -54.4334 0.220177 81.7562 1.76506 14.0087 -0.467832 -8.51556 -2.01782 1.25826 0.0547702 -3.63232 2.79922 
-62.1541 97.8812 48.5376 -4.16819 -69.0896 -94.0232 -70.1915 0 88.8779 68.4834 70.2346 20.4959 6.77407 20.9626 0.31557 -125.783 20.677 177.818 -163.521 58.7531 173.516 -0.0631792 -14.7273 -35.1666 -68.1647 43.8332 -91.0655 8.98844 19.2373 -27.8637 0.420957 0.000575495 0.35866 -1.92355 6.07354 46.1172 -67.7713 -30.5118 96.9906 0.678011 -15.8157 22.1956 0.58676 0.000331457 0.0646658 -52.4685 2.52798 99.4966 -1.81799 20.1914 -8.4299 4.11328 -5.58658 -0.845663 -0.444119 0.668145 0.63158 -54.424 0.213731 81.7595 1.75436 14.0438 -0.427804 -8.50714 -2.03528 1.25738 0.0545354 -3.6304 2.79887 
-62.1544 97.8815 48.5514 -4.25654 -69.0918 -94.1255 -70.1915 0 88.8779 68.4073 70.2373 20.6042 6.82009 20.9912 0.244251 -125.677 20.68 177.735 -163.399 58.7593 173.405 -0.0625765 -14.7297 -35.1391 -67.9425 43.8216 -91.2192 8.98445 19.0465 -27.9359 0.420957 0.000575495 0.35866 -1.92069 6.06151 46.1342 -67.9876 -30.5206 96.9074 0.736433 -16.081 22.1792 0.58676 0.000331457 0.0646658 -52.4992 2.51043 99.4936 -1.80752 20.1605 -8.39241 4.10421 -5.58574 -0.843136 -0.443847 0.667862 0.630885 -54.4167 0.208922 81.7631 1.74448 14.0724 -0.393492 -8.49908 -2.0506 1.25653 0.0543005 -3.62847 2.79853 
-62.1547 97.8817 48.5653 -4.29096 -69.0885 -94.1638 -70.1915 0 88.8779 68.351 70.2328 20.6825 6.85167 21.0043 0.199041 -125.601 20.6838 177.682 -163.312 58.7629 173.303 -0.0624764 -14.7343 -35.1103 -67.7963 43.8092 -91.3291 8.98415 18.9275 -27.9834 0.420957 0.000575495 0.35866 -1.9178 6.04733 46.1618 -68.0756 -30.5095 96.8856 0.762952 -16.1869 22.1751 0.58676 0.000331457 0.0646658 -52.5081 2.50278 99.4903 -1.80073 20.1461 -8.3767 4.0988 -5.58485 -0.841911 -0.443575 0.667578 0.63019 -54.4119 0.209643 81.7669 1.73957 14.0793 -0.382475 -8.4941 -2.05512 1.25599 0.0540657 -3.62654 2.79818 
-62.155 97.8819 48.5716 -4.23659 -69.076 -94.0971 -70.1915 0 88.8779 68.3195 70.2147 20.7218 6.86388 20.9927 0.190478 -125.563 20.6889 177.664 -163.259 58.7625 173.194 -0.0620575 -14.7357 -35.0928 -67.7526 43.7961 -91.3816 8.98864 18.9115 -27.9941 0.420957 0.000575495 0.35866 -1.91675 6.03938 46.1863 -67.9716 -30.4656 96.9552 0.742225 -16.0546 22.1888 0.58676 0.000331457 0.0646658 -52.4819 2.50948 99.4853 -1.79818 20.1581 -8.39613 4.09867 -5.58417 -0.84249 -0.443302 0.667295 0.629495 -54.4116 0.218737 81.7708 1.74274 14.0514 -0.409312 -8.49381 -2.04292 1.25591 0.0538307 -3.62461 2.79784 
-62.1552 97.8821 48.5659 -4.12336 -69.0572 -93.9608 -70.1915 0 88.8779 68.2988 70.187 20.7428 6.86496 20.9656 0.203485 -125.552 20.6952 177.661 -163.213 58.7594 173.063 -0.060598 -14.7303 -35.0894 -67.769 43.7821 -91.4001 8.99569 18.9574 -27.9824 0.420957 0.000575495 0.35866 -1.91866 6.04042 46.2112 -67.749 -30.3968 97.0801 0.69184 -15.7747 22.2139 0.58676 0.000331457 0.0646658 -52.4327 2.52505 99.4786 -1.79744 20.1875 -8.43869 4.10158 -5.58414 -0.844076 -0.44303 0.667011 0.6288 -54.4146 0.233512 81.775 1.75104 13.9999 -0.461324 -8.49647 -2.01981 1.25612 0.0535957 -3.62269 2.79749 
-62.1553 97.8824 48.5532 -4.00756 -69.0381 -93.8208 -70.1915 0 88.8779 68.2881 70.1609 20.7498 6.85972 20.9366 0.2257 -125.551 20.7018 177.674 -163.193 58.7562 172.959 -0.0587008 -14.7218 -35.0936 -67.8175 43.7684 -91.3978 9.00535 19.0255 -27.9643 0.420957 0.000575495 0.35866 -1.92235 6.04578 46.2414 -67.4967 -30.326 97.2192 0.633059 -15.4568 22.2421 0.58676 0.000331457 0.0646658 -52.3813 2.54352 99.4731 -1.79904 20.2189 -8.48335 4.10558 -5.58384 -0.846135 -0.442757 0.666727 0.628105 -54.4181 0.249563 81.7795 1.75966 13.9456 -0.515251 -8.49974 -1.99479 1.25639 0.0533607 -3.62076 2.79715 
-62.1552 97.8826 48.5392 -3.94513 -69.0247 -93.7427 -70.1915 0 88.8779 68.2865 70.1474 20.7473 6.85293 20.9194 0.244774 -125.549 20.7075 177.7 -163.216 58.7559 172.931 -0.0575426 -14.7153 -35.1038 -67.8704 43.7559 -91.3879 9.01775 19.0765 -27.9555 0.420957 0.000575495 0.35866 -1.92618 6.05275 46.2652 -67.3032 -30.2768 97.3322 0.587483 -15.2103 22.2644 0.58676 0.000331457 0.0646658 -52.3485 2.55894 99.4717 -1.8036 20.2373 -8.50903 4.10872 -5.58231 -0.84813 -0.442485 0.666444 0.62741 -54.4189 0.262487 81.7848 1.76391 13.9093 -0.547869 -8.50131 -1.97686 1.2565 0.0531257 -3.61883 2.7968 
-62.155 97.8828 48.5298 -3.96644 -69.0203 -93.7608 -70.1915 0 88.8779 68.3048 70.1545 20.7224 6.84177 20.9199 0.263557 -125.544 20.7126 177.753 -163.316 58.7602 173.025 -0.0583059 -14.7159 -35.1186 -67.939 43.7448 -91.3587 9.03911 19.1123 -27.9612 0.420957 0.000575495 0.35866 -1.9285 6.05864 46.271 -67.1734 -30.2566 97.417 0.555196 -15.0334 22.2803 0.58676 0.000331457 0.0646658 -52.343 2.572 99.477 -1.81434 20.2374 -8.50552 4.11114 -5.57916 -0.850223 -0.442212 0.66616 0.626715 -54.4161 0.273762 81.7938 1.75925 13.8982 -0.549738 -8.49943 -1.96814 1.25625 0.0528907 -3.6169 2.79646 
-62.1545 97.883 48.5265 -4.03638 -69.0211 -93.8344 -70.1915 0 88.8779 68.3399 70.1746 20.6774 6.82504 20.9301 0.286592 -125.544 20.7174 177.828 -163.474 58.7671 173.204 -0.0627015 -14.7293 -35.1448 -68.032 43.7346 -91.3082 9.06731 19.1497 -27.9726 0.420957 0.000575495 0.35866 -1.92877 6.06361 46.2496 -67.0662 -30.2528 97.4927 0.526656 -14.878 22.2938 0.58676 0.000331457 0.0646658 -52.3528 2.58513 99.487 -1.82993 20.2278 -8.48558 4.11364 -5.57493 -0.8526 -0.44194 0.665876 0.62602 -54.4115 0.284837 81.8053 1.7493 13.9007 -0.534337 -8.49571 -1.96394 1.25582 0.0526556 -3.61498 2.79611 
-62.1539 97.8832 48.5263 -4.11246 -69.0229 -93.9166 -70.1915 0 88.8779 68.3697 70.1954 20.6396 6.80994 20.9428 0.30408 -125.542 20.7212 177.9 -163.63 58.7738 173.393 -0.0696569 -14.7513 -35.181 -68.1172 43.7251 -91.2643 9.09003 19.1718 -27.9848 0.420957 0.000575495 0.35866 -1.9279 6.06881 46.2093 -67.0006 -30.2586 97.5507 0.509352 -14.7839 22.3018 0.58676 0.000331457 0.0646658 -52.3671 2.595 99.4971 -1.84423 20.2137 -8.4626 4.11533 -5.57012 -0.854755 -0.441668 0.665593 0.625326 -54.4058 0.291317 81.8135 1.74179 13.9093 -0.51284 -8.49285 -1.96299 1.25549 0.0524205 -3.61305 2.79576 
-62.1529 97.8835 48.5279 -4.15215 -69.0212 -93.9605 -70.1915 0 88.8779 68.3721 70.2044 20.6362 6.80366 20.951 0.306215 -125.532 20.723 177.943 -163.729 58.7778 173.519 -0.0761617 -14.7721 -35.2124 -68.1628 43.7162 -91.2548 9.09494 19.1613 -27.993 0.420957 0.000575495 0.35866 -1.9264 6.073 46.1644 -66.9959 -30.2677 97.5823 0.510791 -14.7907 22.3015 0.58676 0.000331457 0.0646658 -52.3752 2.59822 99.5028 -1.85109 20.2006 -8.44996 4.1153 -5.56525 -0.856183 -0.441395 0.665309 0.624631 -54.3996 0.28884 81.8122 1.74442 13.9165 -0.496425 -8.49358 -1.96408 1.25558 0.0521855 -3.61112 2.79542 
-62.1516 97.8837 48.53 -4.13951 -69.0129 -93.9487 -70.1915 0 88.8779 68.3275 70.1943 20.6973 6.81385 20.9544 0.275763 -125.507 20.7223 177.938 -163.735 58.7794 173.546 -0.0791552 -14.7821 -35.2245 -68.1416 43.7097 -91.3048 9.06837 19.0966 -27.9927 0.420957 0.000575495 0.35866 -1.9248 6.07493 46.1294 -67.0983 -30.2831 97.5666 0.544819 -14.9695 22.287 0.58676 0.000331457 0.0646658 -52.3723 2.5932 99.5035 -1.84824 20.1905 -8.45325 4.11376 -5.56128 -0.856755 -0.441123 0.665025 0.623936 -54.393 0.272446 81.7958 1.76407 13.9192 -0.486033 -8.50031 -1.96704 1.25633 0.0519505 -3.60919 2.79507 
